STARTFONT 2.1
COMMENT
COMMENT Converted from OpenType font "Q:\font stuff\winfont\52 Sphereoids.ttf" by "otf2bdf 3.0".
COMMENT
FONT -FreeType-52 Sphereoids-Medium-R-Normal--40-400-72-72-P-399-ISO10646-1
SIZE 40 72 72
FONTBOUNDINGBOX 42 42 -1 -9
STARTPROPERTIES 19
FOUNDRY "FreeType"
FAMILY_NAME "52 Sphereoids"
WEIGHT_NAME "Medium"
SLANT "R"
SETWIDTH_NAME "Normal"
ADD_STYLE_NAME ""
PIXEL_SIZE 40
POINT_SIZE 400
RESOLUTION_X 72
RESOLUTION_Y 72
SPACING "P"
AVERAGE_WIDTH 399
CHARSET_REGISTRY "ISO10646"
CHARSET_ENCODING "1"
FONT_ASCENT 32
FONT_DESCENT 8
COPYRIGHT "Copyright 1998 OMEGA Font Labs - FREEWARE!"
_OTF_FONTFILE "Q:\font stuff\winfont\52 Sphereoids.ttf"
_OTF_PSNAME "52Sphereoids"
ENDPROPERTIES
CHARS 53
STARTCHAR 0020
ENCODING 32
SWIDTH 500 0
DWIDTH 20 0
BBX 0 0 0 0
BITMAP
ENDCHAR
STARTCHAR 0041
ENCODING 65
SWIDTH 1000 0
DWIDTH 40 0
BBX 40 40 0 -8
BITMAP
0000FF8000
000F007000
0038000C00
0040000600
0180000100
03000000C0
0700000060
0D00000020
1A00000010
1400000008
2880000008
3340200004
6440300004
5840280002
6040240002
C040240002
C040220001
8020220001
8020220001
8020120001
8020110001
8020110001
8020110001
C020210001
C020210002
4040210002
6040420002
6040420006
3080820004
390106000C
1F03040008
1E0C0C0010
0DF0080030
0600300060
03006000C0
01C1800180
007E000600
0030001C00
000E00F000
0001FF0000
ENDCHAR
STARTCHAR 0042
ENCODING 66
SWIDTH 925 0
DWIDTH 37 0
BBX 36 33 0 -1
BITMAP
0003FE0000
001C03C000
0060007000
0180001800
0300000400
0600000200
0C00000100
1800F80080
1003060040
2006010040
2004018020
400C008020
4008008010
4008008010
8008008010
8004008010
8006010010
8003060010
8000FC0010
8000000010
4000000010
4000000010
4000000020
2000000020
2000000040
10000000C0
0800000180
0400000300
0200000600
0180000C00
0060003000
001C01C000
0003FE0000
ENDCHAR
STARTCHAR 0043
ENCODING 67
SWIDTH 1025 0
DWIDTH 41 0
BBX 41 40 0 -8
BITMAP
0000FF800000
0007FFF80000
001F807E0000
007C000F0000
00F00003C000
01400001E000
028000007000
05003E003800
0A0061803C00
1C0080401400
140100600A00
280300200A00
280200200500
480200200500
500200200500
500100200480
500080400480
900061800480
90003F000480
900000000480
880000000480
880000000C80
8C0000000880
440000001880
420000001080
430000002180
418000004100
20C000008100
206000030200
1018000E0200
100700780400
0800FF800C00
040000001800
020000003000
010000006000
00800000C000
006000010000
0018000E0000
000700780000
0000FF800000
ENDCHAR
STARTCHAR 0044
ENCODING 68
SWIDTH 1000 0
DWIDTH 40 0
BBX 41 40 -1 -8
BITMAP
0001FFC00000
000780700000
001BFFF60000
0067333D8000
00F1FFFAC000
01BE32176000
02F33209D000
0733FF85D000
0D7E6163F000
17A640F0F800
1E264190BC00
1C2F8280DA00
283C0D6CDE00
58383EF77700
7C5820912300
760841088100
70CC218CC100
70B7BF79C180
BC7BDEF70300
BC0840060280
700000000380
B40020000700
6F98E0000F80
773BC0000B80
780000000B00
5A8000000F00
3C4000000F00
3BB8087A3600
1E001CE41400
1E0000003E00
0C000000F800
0B1900032800
0783DE013800
03E00001E000
01DFC00F6000
00FBDCF3C000
007F003E0000
001FF1DC0000
00077EF00000
0000FFE00000
ENDCHAR
STARTCHAR 0045
ENCODING 69
SWIDTH 1025 0
DWIDTH 41 0
BBX 41 40 -1 -8
BITMAP
0001FFC00000
000E00380000
001000060000
006000018000
008800014000
018C0000A000
038600007000
070200002800
0D0000001400
0A0000000400
140040000200
180082000200
200083000500
400182A00500
700241500500
4804408C0480
540840431C80
7BF08020E280
480100100480
8806000C0880
86180003F080
81E000000080
800000000080
400000000080
61C00001F080
423800020900
4404000C0500
280200106500
29E18021BA00
17407BC00E00
160004001400
090000001800
050000002800
0380FFF85000
01C30006A000
00A43FC34000
0058C0298000
0039001A0000
0007C03C0000
0000EFC00000
ENDCHAR
STARTCHAR 0046
ENCODING 70
SWIDTH 1000 0
DWIDTH 40 0
BBX 41 41 -1 -9
BITMAP
000020000000
0001FDE00000
000F5CD80000
0016688E0000
006CA8C98000
00ECB0464000
01C159802000
023A49441000
05B150C61800
091120034C00
1001E0002200
114313C00200
29A491460300
2EA491452100
3042A0C33400
400140001600
7000C1000300
720426800080
6DCA244F0080
894922497000
40C521453780
700510831380
540208000000
660006000080
6800019E2580
51C40062DB80
708B1C315580
3805124F3100
3E0312430300
17000E3CCE00
1CE000003600
0C4000003C00
0F061803B400
058214728800
02100C311000
01C80000E000
00C380064000
007818E08000
0011C01F0000
000C1D980000
0003FFE00000
ENDCHAR
STARTCHAR 0047
ENCODING 71
SWIDTH 1000 0
DWIDTH 40 0
BBX 41 40 -1 -8
BITMAP
0003FFE00000
000CFFFC0000
003B023E0000
007E7FFF0000
00D5E92F4000
0390609EE000
0481804BD000
04C180E7B800
098000DC7C00
1BC0084E3C00
170000005C00
330000C0BE00
33B000269200
3CD0001B7700
6478001F7F00
481DF0119F00
4812121E2780
7001ED114680
A0F817A0C580
795626DFCD80
7691D8E0F580
6B1F6161BF80
64104256F680
7D1043DD0A80
6DEC7C6B0E80
70E3CE3FF900
54E7C9711B00
3B2867B1B680
1BF3BA50C100
1F1C1CF11200
0F683B361800
0D8FDC6E1800
06F4279A1800
034BC2729000
01B24AA7A000
00FFF7CD0000
007AAE3E0000
001FFCF00000
0007DE080000
0000EF400000
ENDCHAR
STARTCHAR 0048
ENCODING 72
SWIDTH 1000 0
DWIDTH 40 0
BBX 41 41 -1 -8
BITMAP
0001FFE00000
000FEDD80000
001855BE0000
007002AF8000
00C002AFC000
018000AFE000
0300002FF000
0600002FF800
0A00006F7C00
0C00004F7C00
1400005FFE00
38000017BE00
38000017BF00
28000017BF00
78000015BE80
78000015BF80
5800009DBF80
5800009D7F80
700000A5FF80
780000ADFF80
7800012FDF80
3C00252BDE80
9C00297F6E80
5E00296F7C80
5E00495FF480
47894B5FB880
43E94AFAD100
22EBDEDAE100
207FDEBF4200
1007EFD50200
1001FBD40400
08008A800400
040000000800
020000001000
010000002000
008000004000
006000008000
001000030000
000E001C0000
0001E1E00000
00001E000000
ENDCHAR
STARTCHAR 0049
ENCODING 73
SWIDTH 1000 0
DWIDTH 40 0
BBX 41 41 -1 -8
BITMAP
0001FFE00000
000E00DC0000
001001FA0000
006007FF8000
008007FF4000
010007FFE000
02000DDFD000
040017FBE800
08001FE7F400
1000039DF400
10001FE37E00
20001FE0FA00
20003F183900
40001FE39D00
40003C3C7D00
40003F839F80
400032F87C80
80000F0F9480
80003FF0FF80
800018FF9E80
80003787FC80
80006FFC7080
80001E7FFC80
400079F3E880
40001FEFFC80
400107DFC100
4000FFBFFD00
200003FFC100
20003C7FD200
100007FFFA00
100018000400
080007FFC800
04000E000800
020001FF1000
010000002000
008000004000
004000018000
003000020000
000C001C0000
0003F1E00000
00000E000000
ENDCHAR
STARTCHAR 004A
ENCODING 74
SWIDTH 1000 0
DWIDTH 40 0
BBX 41 41 -1 -8
BITMAP
0001FFE00000
000E001C0000
001000020000
006000018000
008000004000
010000002000
020000001000
040000000800
080000000400
100000000400
100000000200
200000000200
200000000100
400000001900
400000061900
480000098080
48000013C080
800C0012A080
800A0012A080
800E001CA080
83800394A280
8440028B6280
88200104A080
499002055080
4E9380023080
4694803C7100
550CE7C2A100
226B6801C100
229810008A00
11DC20309A00
10A4C0688400
084500308400
043902078800
0200860A9000
010E40152000
008641EE4000
004032B08000
00300F430000
000C218C0000
0003F3F00000
00000C000000
ENDCHAR
STARTCHAR 004B
ENCODING 75
SWIDTH 1025 0
DWIDTH 41 0
BBX 41 41 -1 -8
BITMAP
0001FFE00000
000F80180000
001600060000
006C00018000
00B000004000
016000202000
02C000601000
078000A00800
0D0001200400
0E000140F000
140001430800
240002440400
22001C840400
410063080200
40818DC80200
4046CB280200
409B28980100
80A430840180
80C830400080
405010400080
B02010400080
602028400080
601E50800080
60619080FE80
5FFC11010180
402392C20000
40206D420000
201022440000
201014480000
100018500000
080028A00400
080011400800
040001801800
020000003000
018000006000
00F000004000
004C00008000
0033E0000000
000C10000000
0003FBC00000
000004000000
ENDCHAR
STARTCHAR 004C
ENCODING 76
SWIDTH 1000 0
DWIDTH 40 0
BBX 41 41 -1 -8
BITMAP
0001FFE00000
000F80180000
001600760000
006C00598000
00B000A84000
016000982000
02C000B01000
078001200800
0D0001200400
138001000400
108002000200
204002000200
20203C000100
402041800100
404388000100
404C0E000080
4050C9000080
806148800080
804E48400080
801048400080
801048400080
4020C8400080
401F08800080
402008800080
607809007080
58270E018900
2720C1820500
20D023840300
206824840000
105C25880200
086A25B00400
0827CA400C00
0410F8801800
02300B003000
01E814006000
00BE28004000
0041D0008000
003010000000
000C10000000
0003EBC00000
000010000000
ENDCHAR
STARTCHAR 004D
ENCODING 77
SWIDTH 1000 0
DWIDTH 40 0
BBX 41 41 -1 -8
BITMAP
0001FFE00000
000E00180000
001800060000
006800018000
008400024000
01438002A000
0230780D1000
060FE7FE0800
09001FF00400
08C000001C00
163F8001EE00
21F07FFFF200
380FFF800100
260000000100
71C0003F0100
4E383FC00180
41E7F0001F80
7C1EC01FE080
438003F00080
7C601F000080
83DFFC1FFF80
B83FA1FC0080
5C0007E00080
60003E000080
47FFE07FFF80
79F803F80300
3E001E800100
37F8F0080100
200780FFF200
13FC07F01E00
0C001F000400
0800F8000400
041FE03E0800
02E501C19000
0198067F6000
00A009814000
006032210000
00104C220000
000C483C0000
0003FDC00000
000002000000
ENDCHAR
STARTCHAR 004E
ENCODING 78
SWIDTH 1000 0
DWIDTH 40 0
BBX 40 40 0 -8
BITMAP
00007F8000
000C496000
0014462C00
000B304C00
0004FFB400
00038CC8C0
06407FF140
03BC0006B0
017FFFFBD0
00F7FFFE60
201FC01F8C
38003FE3F4
1F3FFFFC04
06F41FFDF2
01C80067EC
E03FFFFEFB
DE003FBFF4
39C7CFFB7F
073A0E7FFA
00E477BF8F
781FBBF9F0
FF83CE3FFF
0667F1DFF9
3C7CCFE0FF
7F9FFF3F3B
01FF78FFF8
1E0FE77FFE
6FFFBBFF32
0001DE00FC
000FF9FFCC
003FE67FB0
03C3BB9E70
04FCDC2F90
0507600140
021B8040C0
000C61FC00
0000C6C400
000188C400
0001887800
0000878000
ENDCHAR
STARTCHAR 004F
ENCODING 79
SWIDTH 1000 0
DWIDTH 40 0
BBX 40 40 0 -8
BITMAP
00005F8000
000D4A6000
0015462C00
000BB07400
00045FA400
030F0CC8C0
04CD7DF140
02BB2656B0
026A3BDAD0
0173BBBC60
219B401D8C
3D9377B5F4
1BB7F7A802
06740421F2
0740039EEC
66FD7298EF
DDFEF01E70
3CF7819BDF
0A0E0B98D9
02E0591B81
7916D99BF1
9F7687DB13
963F7E9DF7
8C00DC0163
A7BBE7FDD1
5DFCB7C01A
720FBF7BDA
4FFDB3CE96
49ED1FD7EC
29F57F48D4
12D53E4F38
020173CDF0
04B75EEC70
05D46DEB20
02D777EAC0
01AF772580
0037744400
003DF04400
000DF07800
0001EF8000
ENDCHAR
STARTCHAR 0050
ENCODING 80
SWIDTH 1000 0
DWIDTH 40 0
BBX 41 40 -1 -8
BITMAP
0001FFC00000
000600380000
001800060000
006000018000
008000004000
010000002000
020000001000
040000000800
080000000400
10FC00000400
13FA0001FA00
24078006AE00
2B01800B0300
5D00C0140D00
290000180B00
490000280980
450000300880
420000500980
908000500A80
AC8000600580
980000600280
800000600180
400000600080
400000600080
400000600080
400000600080
400000500100
300000300100
280000280200
140080140400
0B07000A0C00
08FE0007F400
041800012800
020000001000
010000002000
00801FF9C000
0060E00F0000
001040300000
000E20600000
0001F1800000
ENDCHAR
STARTCHAR 0051
ENCODING 81
SWIDTH 1000 0
DWIDTH 40 0
BBX 41 40 -1 -8
BITMAP
0000FFC00000
000700380000
001800060000
006000018000
008000004000
010000002000
020000001000
040000000800
080000000800
11FC00000400
13F30001FA00
2E0E80060600
2B0180080300
5D00C0100100
688060200000
710020200000
510020480180
620000500180
9C8000500280
A48000500580
980000680A80
80000067F980
400000600080
400000600080
400000600080
200000500100
200000500100
300000300100
280000280200
140180140400
1387001A0800
09FC0025F000
047800400000
020001800000
018002000000
00601C000000
0021E0000000
0010C0000000
000E20000000
0001F0000000
ENDCHAR
STARTCHAR 0052
ENCODING 82
SWIDTH 1000 0
DWIDTH 40 0
BBX 41 40 -1 -8
BITMAP
00000F800000
000788880000
001889160000
0024B2140000
00E8D1080000
009019300000
0340AA5E0000
0521AA9A0000
08A1A69C4000
08616720C000
1000E3214000
20C05D108000
20A0A5200000
2120A8901000
4E20A8902800
4220C870D000
41F048802880
402805400780
404402440000
80820E4E0000
808109298000
40410898FE00
40420A65C180
423D07323880
400180DFDE80
400140032100
2001200D0100
200118E88100
2000F5270200
100212A00400
080052601800
0809CA002800
0401441E4000
0200C0138000
0100000D4000
008000010000
006000010000
001001820000
000E015C0000
0001FFE00000
ENDCHAR
STARTCHAR 0053
ENCODING 83
SWIDTH 1000 0
DWIDTH 40 0
BBX 41 41 -1 -9
BITMAP
000000800000
00000F000000
000001800000
00000F000000
000000000000
004000180000
00F000040000
03EC00018000
07940006C000
03C800032800
0C1C00381400
1DC807C67A00
1840E2198E00
22B859267E00
268637C5FB00
4D010887ED00
4A80E4629E80
47601C1D7280
411003C38080
58D002C00180
A82001000180
A70000010380
428000068080
41C000070280
406000000380
4000180C1080
40000C0F8500
200000030100
200000000100
200000000200
100000000200
100000000400
080000E00400
040000000800
020000021000
010001002000
008000004000
0060C0008000
001000030000
000E001C0000
0001FFE00000
ENDCHAR
STARTCHAR 0054
ENCODING 84
SWIDTH 1000 0
DWIDTH 40 0
BBX 40 40 0 -8
BITMAP
0001FF0000
000F00F000
0030001C00
0040000600
0194000180
03390000C0
06E2C00060
0D4C800020
1A90820010
15604C0008
2680740008
2D00080204
4900080404
5A00080002
540006183A
A80003E45A
A800004491
9000005D11
900000662D
A000000C33
A000001823
A000000043
A000000003
A000000003
A000000002
6000000006
6000000006
500000000C
380000000C
280000001C
1800000028
1C00000050
0E000000B0
0700000160
03800002C0
01C0000580
00F0007E00
003F0F9C00
000EF0F000
0001FF0000
ENDCHAR
STARTCHAR 0055
ENCODING 85
SWIDTH 1000 0
DWIDTH 40 0
BBX 40 40 0 -8
BITMAP
0001FF0000
000F00E000
0030001800
0040000600
0180000100
0300000080
0600000040
0C00000020
1800000010
1000000008
200E000008
2019000004
4061000004
4182000002
4202000002
8403E00002
8C001C0002
8800038041
88000101C1
9000010281
9000018481
9000009881
9000006131
90000001CA
9000000006
500000000A
5800000012
4400000014
2400000024
2400000048
1200000088
1B00000110
0D80000220
06C0000C40
0370003080
019C01C100
0047FE0600
0030001800
000E00E000
0001FF0000
ENDCHAR
STARTCHAR 0056
ENCODING 86
SWIDTH 1000 0
DWIDTH 40 0
BBX 40 40 0 -8
BITMAP
0001FF0000
000E00F000
0030001800
00C0000600
0180000100
03000000C0
0400000060
0C00000020
1800000010
1000000008
2000000008
2000000004
4000000004
4000000002
C000000002
8020000002
80E0000002
8140000001
8240000001
8480000001
8900000001
891F800001
9270600001
94C0200003
9500200002
8A00300002
44001E8002
440001C004
2400006004
2400004008
1200004008
1900008010
0880010020
0460010060
021C0200C0
0183FC0100
00C0000600
0030001C00
000E00F000
0001FF0000
ENDCHAR
STARTCHAR 0057
ENCODING 87
SWIDTH 1000 0
DWIDTH 40 0
BBX 41 40 -1 -8
BITMAP
0001FFE00000
000618180000
001806060000
006001018000
00D000804000
012000802000
022000801000
042001001800
084001801400
108001801C00
11C000E02E00
202000702A00
283000184B00
5010000E4D00
501800078D00
501800034C80
50180002A880
50300004C980
903020055A80
9008D81A7380
90785625F280
90C423DA6280
418501E4C280
418600058280
4303010B0680
5E00830B0600
5400CD160200
3400511C0300
2C0076240200
1600384C0200
0A00104C0400
090028880400
058019080800
02801A0C1000
01C00E1E2000
00A01C0BC000
00401C178000
00303E3A0000
000E47F80000
0001FFC00000
ENDCHAR
STARTCHAR 0058
ENCODING 88
SWIDTH 1000 0
DWIDTH 40 0
BBX 41 40 -1 -8
BITMAP
0001FFE00000
000708180000
001806060000
006203018000
009000804000
01A004802000
0221FCC01000
046E05F05800
0850028C7400
10E001438C00
138001808E00
2E4000C00A00
3DA000700900
585000380900
5830000C0900
581000060880
580000021880
780000000880
A80000019380
C80000025280
D8000005A280
7030000A6280
7058001CC080
70EC00118080
618600010400
2D8300020400
3F0180040400
3E0080040200
1A0041080200
1E002E000200
0F000C000400
0F0000000400
078000000000
03C000001000
01E000002000
00E004038000
003004010000
001C06020000
000F83180000
0000FFC00000
ENDCHAR
STARTCHAR 0059
ENCODING 89
SWIDTH 1000 0
DWIDTH 40 0
BBX 41 40 -1 -8
BITMAP
0001FFC00000
0007FFF80000
001ECC7E0000
0077B07B8000
00F9FF1DC000
01EFFEF3E000
03F801EF3000
07E3FE1CF800
0B9CE1C3C800
1E6F1F383C00
1DF000F70600
1383F00CFE00
201C0E038100
20E3FF807F00
3F3C00800100
40C0001F0180
7F0007F0FE00
4803F8000380
B81C00007C80
50E0007F8180
A303FC200680
443C03FFF980
58C000080680
67000007F980
780000000780
4001F0001B00
30FE0FFFE500
2F0000001B00
18000000EE00
1FFFFFFF1E00
0C0000007400
0F000006AC00
07F003FB7800
03CDFC35F000
01F803DFE000
00FFFCFBC000
007FFF7F0000
001FFFFE0000
0007FFF80000
0000FFC00000
ENDCHAR
STARTCHAR 005A
ENCODING 90
SWIDTH 1000 0
DWIDTH 40 0
BBX 41 41 -1 -8
BITMAP
0001FFC00000
000600380000
001800060000
007F80018000
00E160004000
018013FC2000
028024021000
050014010800
0D0014008C00
0E0014008400
140014006200
220014004200
220018208100
2120185FC100
40D064F0B100
4F90470C8880
486058828880
4820E7418880
842180C01080
843230002880
83BCC87C4880
807F07828080
400000050080
400FFFD90080
400910E10080
40088B820100
200487020100
200705840100
200002780200
1002001E0200
100587E20400
080468020400
040418020800
020400021000
010400042000
008208044000
00423E058000
0033FDBA0000
000EFFFC0000
0001F3C00000
00000C000000
ENDCHAR
STARTCHAR 0061
ENCODING 97
SWIDTH 1000 0
DWIDTH 40 0
BBX 40 40 0 -8
BITMAP
0000FF8000
0007FFF000
003FFFFC00
007FFFFE00
00FFFFFF80
03FFFFFFC0
07FFFFFFE0
05FFFFFFF0
0BFFFFFFF0
17FFFFFFF8
2FFFFFFFFC
5E7FDFFFFC
387FCFFFFE
F03FC7FFFE
603FC7FFFE
603FE3FFFE
C03FE3FFFF
C03FE3FFFF
801FE1FFFF
801FE1FFFF
801FE1FFFF
801FE1FFFF
801FE1FFFF
801FE1FFFF
401FE1FFFF
401FC1FFFE
401FC1FFFE
203F81FFFE
203F81FFFC
107F03FFFC
38FE03FFF8
18FC07FFF0
0FF007FFF0
08000FFFE0
04001FFFC0
03007FFF80
00C1FFFE00
003FFFFC00
000FFFF000
0001FF8000
ENDCHAR
STARTCHAR 0062
ENCODING 98
SWIDTH 925 0
DWIDTH 37 0
BBX 36 32 1 -1
BITMAP
0007FC0000
003FFF8000
00FFFFE000
01FFFFF000
07FFFFFC00
0FFFFFFE00
1FFFFFFF00
3FFE07FF80
3FFC01FF80
7FF000FFC0
7FF000FFC0
FFF000FFE0
FFF0007FE0
FFF000FFE0
FFF000FFE0
FFF801FFF0
FFFC03FFF0
FFFFFFFFF0
FFFFFFFFE0
FFFFFFFFE0
FFFFFFFFE0
FFFFFFFFE0
7FFFFFFFC0
7FFFFFFFC0
3FFFFFFF80
1FFFFFFF00
0FFFFFFE00
07FFFFFC00
03FFFFF800
00FFFFE000
003FFF8000
0007FC0000
ENDCHAR
STARTCHAR 0063
ENCODING 99
SWIDTH 1025 0
DWIDTH 41 0
BBX 40 40 1 -8
BITMAP
0001FF0000
000E00E000
0030001800
00C0000600
0180000300
0300000180
06000000C0
0C007E0060
1800FF0030
3001FF8018
3003FFC018
7003FFC00C
6003FFE00C
6003FFC00E
E003FFC00E
E001FFC00E
E000FF8006
E0003E0006
E00000000F
E00000000F
E00000000F
E00000000F
F00000001E
F00000001E
F80000003E
F80000003E
7C0000007E
7E000000FC
7F800001FC
3FC00007F8
3FF0001FF8
1FFE00FFF0
0FFFFFFFE0
07FFFFFFC0
03FFFFFF80
01FFFFFF00
00FFFFFE00
003FFFF800
000FFFE000
0001FF0000
ENDCHAR
STARTCHAR 0064
ENCODING 100
SWIDTH 1000 0
DWIDTH 40 0
BBX 39 40 0 -7
BITMAP
0001000000
0008810000
0071BD8000
0080605800
0103998000
061C63FA40
084463E720
0A47B9F180
14387E3DA0
27C47F3E30
5FCCFFFFC8
5F99FDFFD0
AFE7F1E6F8
BF9FCE191C
87FFFFFFF8
97FFFFFFFC
BFFFFDEF7E
1F39C18EFE
2FCCFE33FC
7FEFFFFFFA
5FFFFFFFFA
1FFFFFFFFC
68EF7FFFF4
B7FCFFFFFA
BFFFFFFFFA
AFFFFFFFF8
B7FFFFFFF6
4E8FFFDBD8
4FFFF7FFD0
27FFFFFFE8
27FFFFFFD0
17FFFFFFA0
0AFFE7FD80
09FFFFFE80
06D5FFEB00
013E5EF880
0085FFC400
00673DA000
0018D80000
0007A60000
ENDCHAR
STARTCHAR 0065
ENCODING 101
SWIDTH 1025 0
DWIDTH 41 0
BBX 40 40 0 -7
BITMAP
0001FF0000
000FFFF000
003FFFFC00
007FFFFE00
01FFFFFF80
03F7FFFFC0
07FFFFFF20
0DFFFFFFB0
0BFFFFFFF8
37FFFFFFF8
4FFFFFFFFC
5FFFFBFFFC
7FFEFDFFFE
7FFFFCBFFE
7FFC7E1FFE
9FF87E0FFE
1FE07F03E7
4300FF8007
E003FFC007
F007FFF00F
F81FFFFEFF
FFFFFFFFFF
FFFFFFFFFF
FFFFFFFFFF
FFFFFFFE1F
781FFFF80E
700FFFF00E
7003FFE004
3181FF80EC
32007E0008
1C00000018
0C00000030
0600000020
0700FFE040
0387FFF8C0
01CFC0FD80
006E003E00
003C002800
0007806000
0000C00000
ENDCHAR
STARTCHAR 0066
ENCODING 102
SWIDTH 1000 0
DWIDTH 40 0
BBX 40 40 0 -7
BITMAP
0001F98000
000FB17000
003F300C00
0076318200
01EF000980
03FEE10040
07DC618020
0FDC618400
0DFE000410
1FFDC00040
3FF9C30000
3F38E38C00
7F38C18600
7FF8810220
7FFE000020
DFFF800002
5FFFCF0001
FEF3C78C00
FE71C38E60
FEF1C38664
FFF9C10004
DFFFF00000
7FFFF80000
BFFFFF1801
BEFFFFFCEA
9FF3CFBCEA
BFF3C38C02
4BFFE38402
4FFFFFCF14
27BFFFFFFC
277FFFFFD8
15FBFFFC90
0BFFC71DF0
07DFFFFFE0
02FFFFFFC0
01FFFFF380
00AFEF7E00
007FFFEC00
000FFFF000
0000FF0000
ENDCHAR
STARTCHAR 0067
ENCODING 103
SWIDTH 1000 0
DWIDTH 40 0
BBX 40 40 0 -7
BITMAP
0003F90000
001FF4F000
003FFF9000
00F3A88800
01FFDFD800
03FFFEE400
06FEFF6300
0F7FFEFDD0
1EFFFFFFC0
2FFFFFF3C0
3FFFFFFFF0
3FFFFF7F24
7EBFFFFE24
6F7FFFE3AC
7FAFFFFA7E
FFEE7FE7F4
6FF83FCBDA
BFFF71DF8A
BF5FEDFF0A
DC67C38310
C8E11E81F0
6FE9BC4215
FFFFFC66C9
F7FFF96DF0
DE4F8FBFFC
DE410FF406
764783C210
53DF866260
323E786180
3E20306200
327023E410
0EF9FF9800
0787881010
060D08E420
037C858B00
018B7A1200
0084046C00
001E909000
000B050000
0005880000
ENDCHAR
STARTCHAR 0068
ENCODING 104
SWIDTH 1000 0
DWIDTH 40 0
BBX 40 40 0 -7
BITMAP
0001FF8000
000E4B7000
0030056C00
0040015E00
0180015F80
0300005BC0
0600005B60
0C0000ABB0
0C0000AAF0
180000AAF8
3800002ADC
5000002AEC
7000002AF6
6000002ADE
6000002ADA
E000002ADB
6000014ADB
E000014ADF
E000014ADF
F000024AEB
F00002536F
F000025577
F80012557F
F80012957F
FC009295BF
7C0294AEDE
7F0294AAFE
7F52A52BFE
3FD4A55FFC
3FF5AD5FFC
1FFFAB7FF8
0FFFEBFFF0
07FFFFFFF0
07FFFFFFE0
03FFFFFFC0
00FFFFFF80
007FFFFE00
001FFFFC00
0007FFE000
0000FE0000
ENDCHAR
STARTCHAR 0069
ENCODING 105
SWIDTH 1000 0
DWIDTH 40 0
BBX 40 40 0 -7
BITMAP
0001FF8000
000FFFF000
003FFFDC00
007FFDFE00
01FFFBD780
03FFFFBFC0
07FFFF7B60
0FFFF8EEF0
0FFFFF9DF0
1FFFFC7358
3FFFFB8EFC
3FFFFF819C
7FFFF8407E
7FFFE7022E
7FFFE0F1DE
FFFFFE0E3E
FFFFC1E1CF
FFFFFC1E3F
FFFF87C1C7
FFFFE03C3F
FFFFFE03C7
FFFF81F03F
FFFFF80F87
FFFFFFC07E
FFFFE0FF0E
7FFFFF01FE
7FFFC7FFBE
7FFFFC03FC
3FFF9FFFFC
3FFFFC00F8
1FFFFFFFF8
0FFFFC01F0
0FFFFFFFE0
07FFFFFFE0
03FFFFFFC0
00FFFFFF00
007FFFFE00
003FFFF800
000FFFE000
0000FF0000
ENDCHAR
STARTCHAR 006A
ENCODING 106
SWIDTH 1000 0
DWIDTH 40 0
BBX 40 40 0 -7
BITMAP
0001FF8000
000FFFF000
003FFFFC00
007FFFFE00
01FFFFFF80
03FFFFFFC0
07FFFFFFE0
0FFFFFFFF0
0FFFFFFFF0
1FFFFFFFF8
3FFFFFFFFC
3FFFFFFFFC
7FFFFFFFFE
7FFFFFFFFE
7FFFFFFFFE
FFFFFFE0FE
FFFFFFE67F
FFF7FFC33F
FFE7FFC73F
FFF7FFEF3F
F8FFF8EE3F
F07FF8F03F
F07FFFF1FF
F03FFFF9BF
F71CFFFFBE
7618FFFFFE
5819B0033E
78DFA001FC
3DEFE000FC
3F6FC000FC
1F860070F8
0F8E0000F0
0FFE040CE0
07FE0419E0
03F7001BC0
00F3818F00
007FC7BE00
003FF87C00
000FFFE000
0000FF0000
ENDCHAR
STARTCHAR 006B
ENCODING 107
SWIDTH 1025 0
DWIDTH 41 0
BBX 40 40 0 -7
BITMAP
0001FF8000
000E007000
0034000C00
00D8000200
0120000180
06C0000040
0500008020
0A00008010
1400018000
28000180E0
30000383F0
30000307F0
78000F0FF8
7C00780FF8
7F01EF1FFC
FF0FE3CFFC
FF1C61EFFC
FF3020FFFE
FF6020FFFE
FFC0007FFF
3FC0007FFF
3FC060FFFF
7FE0E0FFFF
FFBFE1FF87
8C4FE1FE00
8041E77C00
80407C7800
4040387800
4000387000
200030E000
200020C000
1000018010
0800020020
0400000040
0200000080
01C0000000
0078000000
003FC00000
000FE00000
0000E10000
ENDCHAR
STARTCHAR 006C
ENCODING 108
SWIDTH 1000 0
DWIDTH 40 0
BBX 40 40 0 -7
BITMAP
0001FF8000
000E007000
0034000C00
00D800CE00
012000CF80
06C000DFC0
090001FFE0
0A0001FFE0
0C0001FFF0
1C0003FFF8
3F0003FFFC
3F0007FFFC
7FC03FFFFC
7F807FFFFE
7F83FFFFFE
FF8FF3FFFE
FFBFF1FFFF
FFFC70FFFF
FFF070FFFF
FFE0F0FFFF
FFC0F0FFFF
FFC070FFFF
7FFFE0FFFF
FFFFE1FFFF
BFDFE3FFBE
8FC3E7FC0E
81C0FDFC06
40E03CF800
40A039F000
209030E000
200839C008
1007FF8010
08000E0020
04201C0040
0270380080
01D8600000
007FC00000
003FC00000
000FE00000
0001F10000
ENDCHAR
STARTCHAR 006D
ENCODING 109
SWIDTH 1000 0
DWIDTH 40 0
BBX 40 40 0 -7
BITMAP
0001FF8000
000FFFF000
003FFFFC00
00CFFFFE00
0107FFFD80
0381FFF8C0
07C03FF1E0
0BFF0007F0
11FFFFFFF0
107FFFFFE0
3C1FFFFF0C
3F800307FC
5FFFFFFFFC
87FFFFFFFE
80FFFFF7FE
F81FF0FFFE
FF843FFFE1
1FFFFFF1FF
01FFFC7FFF
C07FE3FFFF
FF0F1FFE00
FFF1FE1FFF
07FFF1FFFF
FFFFCFFFFF
FF00FF8002
80FFFC7FFE
9FFFE7FFFE
60FF3FFFFC
4003FF007C
27FFF8FFE8
2FFFE7FFF0
1FFF3FFFF0
0FF0FFCFF0
0707FE01E0
021FF8FCC0
013FE1FE80
00BFC7BE00
007F8FB800
000F8FE000
00008F0000
ENDCHAR
STARTCHAR 006E
ENCODING 110
SWIDTH 1000 0
DWIDTH 40 0
BBX 40 40 0 -8
BITMAP
00003F0000
000438C000
000C3FE000
000E1FCC00
0003C01C00
0000FFF040
02000FC0C0
03380003A0
00C7F03E60
007F1FE7C0
0001FFFC00
380000007C
0E1E01FFFC
01E7FF9F9E
007FFF6078
000E001F9E
78000FEFE0
0F81FFD00F
01F3F81FF0
003FC3E3FF
00001EFC00
FF00F90FFF
03E311F800
1FFFE77FFE
30003A8000
003FD47FF0
1FF0E3E00E
001F1EBFE0
0000F50018
0007007F80
0001E3C1E0
01FE1E0C30
0380701380
0203C000C0
000E000000
0000019C00
0000C3BC00
000187B800
0001078000
0000060000
ENDCHAR
STARTCHAR 006F
ENCODING 111
SWIDTH 1000 0
DWIDTH 40 0
BBX 40 40 0 -8
BITMAP
00003F0000
000439C000
000D3FE800
000FBFCC00
0007E31C00
0004FFF040
0704E7B0C0
03BCC623A0
01C7FC3F60
00BFCFE7C0
008FFFFA80
308E8C52FC
0E9FF8FFFC
07EBFFFF9E
02FFFFF778
62AFCEFFBE
7A76EFFFF0
07D7FFE53F
01F7FE7FEF
013FE7F7FF
008B3FEE6F
FFD9FF67FF
F3EFB3FE6D
FFFFEFFFFF
784D7B666E
007FDF7FFE
3FFAFBD62E
38BFDFFFF0
38AAF5B578
19AFF5FFB8
012BF7F3E0
03FFFFBEB0
07EAFDB7C0
024BEDB3C0
00DEAD5980
0096ADFC00
0014EBFC00
0005AFB800
00052FA000
00000F0000
ENDCHAR
STARTCHAR 0070
ENCODING 112
SWIDTH 1000 0
DWIDTH 40 0
BBX 40 40 0 -8
BITMAP
0000FF0000
000FFFE000
003FFFF800
007FFFFE00
00FFFFFF00
03FFFFFFC0
07FFFFFFE0
07FFFFFFE0
0FFFFFFFF0
1E0FFFFFF8
39E3FFFE18
3FF9FFF9F4
7BFEFFF3FC
51FFFFE7F4
71FFFFCFE2
71FFFFDFE2
F1FFFF9FE1
FFFFFFBFE3
FEFFFFBFF7
CEFFFFBFFF
FFFFFF3FF9
FFFFFF3FFF
FFFFFF3FFF
FFFFFF3FFF
7FFFFFBFFF
7FFFFFBFFE
7FFFFFBFFE
3FFFFF9FFC
2FFFFFDFFC
17FFFFEFF8
19FBFFF3E8
0F07FFF810
07FFFFFFE0
07FFFFFFE0
03FFFFFFC0
00FFF87F00
007F001000
001F002000
000780C000
0000400000
ENDCHAR
STARTCHAR 0071
ENCODING 113
SWIDTH 1000 0
DWIDTH 40 0
BBX 40 40 0 -8
BITMAP
0001FF0000
000FFFE000
003FFFFC00
007FFFFE00
01FFFFFF80
03FFFFFFC0
07FFFFFFE0
07FFFFFFE0
0FFFFFFFF0
1E0FFFFFF8
3BE3FFFC18
3DF9FFF804
79FEFFF000
71FF7FE000
71FF7FC000
61FFFFC000
E1FFFF8001
E3FFFF8003
E6FFFFA007
CEFFFF200D
FFFFFF3009
FFFFFF3FFF
FFFFFF3FFF
FFFFFF3FFF
7FFFFF3FFE
7FFFFFBFFE
7FFFFF9FFE
2FFFFF9FFC
37FFFFCFFC
3BFEFFE7F8
1DF9FFF3E0
0F07FFC000
0FFFFF8000
07FFFE0000
01FFFC0000
007FF00000
003E000000
003F000000
000F800000
0000C00000
ENDCHAR
STARTCHAR 0072
ENCODING 114
SWIDTH 1000 0
DWIDTH 40 0
BBX 40 40 0 -8
BITMAP
00001F0000
00061F0000
000E1E1800
000E3C1000
00DFFE0000
00DFFC6000
047FCC6C00
067E8CE800
0F7E89C880
1F7E89C080
1FFEC38180
3F7F1BE000
3F7F31C000
7C7E31C000
703E70C030
783F7060E0
FEFFF10000
FFDFFB0004
FF8FFF8000
FF07E78800
FE03E3DF00
FF83F1DE04
FF83F007FF
FBE7FE401F
7FFEFF650E
7FFC7FFFFE
7FFC7FF1FE
3FFC1E61FC
3FFFE637FC
1FFFE73FF0
1FFFE77FE0
0FFEE7FF90
07FEFFC700
03FEFFE200
01FFFFF600
00FFFFFC00
007FFFFC00
001FFEF800
0007FE6000
00007E0000
ENDCHAR
STARTCHAR 0073
ENCODING 115
SWIDTH 1000 0
DWIDTH 40 0
BBX 40 40 0 -8
BITMAP
0000180000
0000010000
0000060000
0000000000
0000003000
00C0000000
0170000000
0518000780
0000000050
0818002038
16000678D0
2F8083FFF8
3CF0718394
7CF83C016A
77FC1E0666
76FF87822A
F47FF7F0FF
FC3FFCFFFF
EFBFFC7FFD
BFFFFFFFFD
FBFFFFFFFF
FCFFFFF9FF
FE7FFFFBFF
FFFFFFFFF9
7FFFEFFFDE
7FFFE7F0F6
7FFFFFFFFE
3FFFFFFFFE
3FFFFFFFFC
1FFFFFFFFC
1FFFFFFFF8
0FFFFE7FF0
07FFFFFFE0
07FFFFFFE0
03FFFFFFC0
00FFFFFF00
007FFFFE00
001FFFF800
0007FFE000
00007E0000
ENDCHAR
STARTCHAR 0074
ENCODING 116
SWIDTH 1000 0
DWIDTH 40 0
BBX 40 40 0 -8
BITMAP
0000FF8000
000FFFF000
003FFFFC00
007FFFFE00
00FFFFFF80
03CFFFFFC0
07BC7FFFE0
0770FFFFF0
0EE0FFFFF8
1DC033FFF8
1B8007FFFC
33000FFDFC
36000FFFFE
6C0007FFFE
7C0001EFDE
5800001F8F
F000003B0F
F00000331F
E00000061B
E000000C23
E000000843
C000000043
C000000003
C000000003
4000000003
4000000002
4000000006
2000000006
200000000C
300000001C
1000000018
0800000038
0800000070
04000000E0
02000003C0
0100000780
00C0007F00
002001FC00
001E0FF000
0001FF8000
ENDCHAR
STARTCHAR 0075
ENCODING 117
SWIDTH 1000 0
DWIDTH 40 0
BBX 40 40 0 -8
BITMAP
0000FF8000
000FFFF000
003FFFFC00
007FFFFE00
00FFFFFF80
03FFFFFFC0
07FFFFFFE0
07FFFFFFF0
0FFFFFFFF0
1FFFFFFFF8
3FF9FFFFFC
3FE0FFFFFC
7F81FFFFFE
7F01FFFFFE
7C01FFFFFE
78001FFFFF
F80007FFFF
F000007FFF
F00000FF7F
F00000FE7F
E00000F87F
E0000070FF
E0000040FF
E00000018F
6000000007
6000000006
700000000E
380000000E
380000001C
380000003C
1C00000078
0E000000F0
06000001F0
07800007E0
0380000FC0
00E0003F80
007801FE00
003FFFFC00
000FFFF000
0000FF8000
ENDCHAR
STARTCHAR 0076
ENCODING 118
SWIDTH 1000 0
DWIDTH 40 0
BBX 40 40 0 -8
BITMAP
0000FF0000
000FFFF000
003FFFFC00
007FFFFE00
01FFFFFF80
03FFFFFFC0
07FFFFFFE0
0FFFFFFFF0
0FFFFFFFF0
1FFFFFFFF8
3FFFFFFFFC
3FFFFFFFFC
7FFFFFFFFE
7FFFFFFFFE
7FFFFFFFFE
7FFFFFFFFF
FF3FFFFFFF
FE7FFFFFFF
FC7FFFFFFF
F8FFFFFFFF
F1FFFFFFFF
F1FFFFFFFF
E3C03FFFFF
E7801FFFFF
66001FFFFF
7C003FFFFE
78000DFFFE
780000FFFE
3800003FFC
3C00003FFC
1C00007FF8
0E00007FF0
0F0000FFF0
078000FFE0
03E001FFC0
01FC03FF80
007FFFFE00
003FFFFC00
000FFFF000
0001FF8000
ENDCHAR
STARTCHAR 0077
ENCODING 119
SWIDTH 1000 0
DWIDTH 40 0
BBX 40 40 0 -8
BITMAP
0000FF0000
000FFFF000
003FF7FC00
007FFDFE00
01DFFEFF80
03FFFEFFC0
07FFFFFFE0
0FBFFDFFE0
0F7FFDFFF0
1FFFFEFFD8
3DFFFF7FD8
3FBFFF9F94
7FDFFFCF94
5FDFFFF712
7FFFFFFB12
5FFFFFFD10
FFDFFFFD90
FFDFFFF910
FFDFFFF3A3
FFEF0FE3A4
FFBF338E44
DF7FFD1C84
FEF5FF7888
FFFBFFF108
7DFDFDF204
5BFEF9E404
5FFFF1E40C
3FFF63C80C
3FFFA7C804
1FFF9F9000
1FFF9F1008
0FFFDF1000
07FFEE1010
03FFEC1020
03FFE80800
00FFE81780
007FE82A00
003FC43000
0007030000
0000FF2000
ENDCHAR
STARTCHAR 0078
ENCODING 120
SWIDTH 1000 0
DWIDTH 40 0
BBX 40 40 0 -8
BITMAP
0000FF0000
000FFFF000
003FF3FC00
007BFDFE00
01DFFEFF00
03FFFEFFC0
07FFE7FFE0
0FE0073FE0
0F40010F30
1E80020318
3C00030018
3780018014
78C0004004
5040003002
6020000812
6000000410
E000000010
D000000020
9000000023
90000003A4
A000000444
A000000880
E0F0001080
C088000100
8104000200
9202000408
5402000808
6401001008
3400800004
2C000C0000
1C00100008
0E00000000
0B00000000
0580000000
0280000000
01C0000300
0040100200
0030080000
000E060000
0000F50000
ENDCHAR
STARTCHAR 0079
ENCODING 121
SWIDTH 1000 0
DWIDTH 40 0
BBX 40 40 0 -7
BITMAP
0000FF0000
000FFFE000
001707FC00
0079FF1E00
01DF0FF180
03F0F03E80
059FFF83E0
0E7E1FF070
09E0007F10
178FFC1FE0
2E7FFFC3F8
19FFFFF01C
3FE003FE00
7F01E1FFF8
403FFFFFFE
80FFFFE7FE
73FFFFE000
FFFC000003
DFE000003F
BF0000FFFE
7C01C03FF8
F03FFFFF83
E0FFFFF006
87FFFFFC3C
3FFFFFFFF8
7FFFFFFFE2
3F00007E0C
0000000018
30000000F4
1F80F80FC8
07FFFFFF90
09FFFFFE70
047FFF0CE0
0700003140
02E003E6C0
019FFF1B00
0061E06600
003E07B800
001FF9E000
0001FE4000
ENDCHAR
STARTCHAR 007A
ENCODING 122
SWIDTH 1000 0
DWIDTH 40 0
BBX 40 40 0 -8
BITMAP
0000FF0000
0007FFF000
003FFFFC00
007FFFFE00
01807FFF00
03003C0FC0
06003003E0
0E001801E0
04001801F0
04001800F8
1800100078
380010007C
3C001000FC
7E0010FFFE
7FE0F03F1E
75C07C0F0E
E040CE030F
F04183831F
F04300001F
F04420003F
FE187040FF
FFB7FFFCFF
FFFFFFF1FF
FFF72043FF
7FF3E183FE
7FF1F303FE
7FF0FC07FE
3FFBFA0FFC
3FFFFFFFFC
1FFFFFFFF8
1FF8F303F8
0FF83003F0
07F81003E0
07F80007E0
03F80007C0
01F8000700
007C380E00
003DFE1800
0007C10000
0000FF8000
ENDCHAR
ENDFONT
